<?xml version="1.0" standalone="no"?>
<!DOCTYPE svg PUBLIC "-//W3C//DTD SVG 20010904//EN"
 "http://www.w3.org/TR/2001/REC-SVG-20010904/DTD/svg10.dtd">
<svg version="1.0" xmlns="http://www.w3.org/2000/svg"
 width="30pt" height="30pt" viewBox="0 0 1088.000000 1088.000000"
 preserveAspectRatio="xMidYMid meet">

<g transform="translate(0.000000,1088.000000) scale(0.100000,-0.100000)"
fill="#000000" stroke="none">
<path d="M5045 10458 c-261 -15 -509 -52 -755 -113 -168 -41 -552 -166 -671
-217 -20 -9 -47 -19 -60 -23 -13 -4 -48 -18 -77 -31 -29 -13 -55 -24 -57 -24
-14 0 -349 -171 -455 -231 -69 -40 -150 -86 -180 -102 -112 -63 -397 -265
-540 -383 -210 -175 -584 -547 -723 -721 -175 -218 -291 -376 -353 -483 -12
-19 -44 -73 -73 -119 -87 -140 -234 -416 -294 -551 -56 -125 -168 -435 -217
-600 -75 -253 -145 -608 -187 -940 -22 -178 -25 -817 -4 -990 62 -517 101
-706 221 -1070 93 -281 148 -417 263 -648 180 -360 378 -673 582 -917 22 -27
48 -60 56 -71 51 -75 453 -490 554 -571 433 -349 543 -426 870 -605 277 -152
596 -296 755 -343 14 -4 39 -13 55 -20 31 -14 146 -49 335 -104 141 -40 353
-85 530 -111 80 -11 152 -23 160 -25 8 -2 111 -12 229 -21 324 -25 799 -11
1071 32 355 55 555 100 840 187 103 32 384 133 435 157 11 5 72 32 135 60 164
73 442 219 582 306 120 75 396 279 558 413 186 154 557 533 681 696 21 28 61
79 90 115 49 62 186 264 259 380 103 165 235 414 307 580 25 58 51 119 59 135
12 27 71 189 111 305 36 105 116 398 149 545 13 61 26 117 29 125 3 8 19 107
36 220 39 273 53 530 45 890 -5 287 -18 430 -65 700 -22 129 -95 431 -136 565
-14 44 -39 127 -56 185 -34 112 -118 327 -175 448 -19 41 -34 76 -34 78 0 6
-131 267 -158 315 -286 508 -680 986 -1152 1398 -150 131 -515 395 -677 489
-35 20 -101 59 -146 85 -93 54 -387 201 -468 234 -30 12 -83 34 -119 48 -103
42 -366 133 -465 161 -150 43 -307 85 -355 95 -378 83 -869 115 -1345 87z
m680 -1028 c206 -19 310 -39 527 -101 452 -130 810 -307 1169 -580 206 -156
436 -403 590 -631 129 -191 208 -343 296 -568 130 -329 185 -547 228 -905 28
-230 15 -781 -24 -1043 -18 -120 -75 -408 -97 -489 -8 -29 -21 -78 -29 -109
-16 -59 -72 -230 -100 -305 -9 -24 -26 -69 -37 -99 -25 -68 -31 -83 -57 -142
-12 -26 -21 -50 -21 -53 0 -8 -130 -268 -159 -320 -159 -279 -340 -525 -526
-715 -256 -263 -407 -386 -643 -529 -286 -173 -573 -284 -897 -349 -192 -39
-292 -47 -575 -47 -445 0 -611 31 -1070 197 -129 47 -348 166 -555 303 -169
111 -249 178 -435 365 -146 146 -176 179 -251 280 -184 248 -314 490 -427 795
-171 460 -211 1095 -103 1630 26 126 86 341 126 445 48 126 178 398 216 452
11 14 19 29 19 32 0 12 144 222 232 337 147 194 405 439 638 606 151 109 336
211 570 316 125 56 406 138 575 168 352 63 771 44 1125 -50 332 -88 725 -296
988 -523 127 -109 402 -409 402 -438 0 -4 -39 -41 -87 -81 -49 -40 -125 -106
-169 -146 -45 -40 -88 -73 -97 -73 -8 0 -52 42 -98 92 -178 197 -297 296 -519
436 -186 117 -348 187 -580 250 -180 49 -243 56 -505 56 -248 0 -276 -3 -490
-44 -330 -64 -759 -295 -1059 -570 -249 -228 -497 -584 -629 -900 -65 -158
-121 -320 -136 -395 -5 -22 -16 -74 -24 -115 -112 -549 -37 -1124 208 -1585
93 -177 133 -240 246 -390 263 -351 642 -641 1024 -784 33 -13 69 -27 80 -31
54 -24 234 -75 315 -90 25 -4 86 -16 135 -25 110 -22 511 -26 645 -6 329 47
687 183 960 365 58 38 109 73 115 78 210 165 326 279 504 493 222 267 358 506
522 917 55 138 81 220 157 493 49 174 74 323 102 587 13 125 13 580 0 689 -21
177 -32 255 -40 289 -5 19 -14 58 -21 85 -37 160 -124 409 -195 563 -138 297
-338 555 -594 769 -326 273 -676 455 -1115 582 -179 51 -399 81 -600 81 -96 0
-145 4 -153 12 -13 13 -18 431 -6 462 5 14 28 16 153 16 80 0 196 -5 256 -10z
m-1680 -305 c12 -22 55 -103 95 -180 40 -77 81 -152 91 -167 32 -45 25 -63
-31 -77 -63 -16 -285 -126 -455 -226 -329 -192 -682 -508 -963 -861 -198 -248
-448 -682 -544 -944 -152 -417 -204 -639 -238 -1031 -18 -213 -7 -563 25 -749
42 -250 107 -507 154 -615 5 -11 24 -63 41 -115 45 -130 112 -278 193 -425 22
-38 53 -95 70 -125 79 -143 276 -410 416 -565 59 -65 264 -270 316 -316 86
-76 265 -212 334 -254 9 -5 36 -24 61 -41 90 -61 330 -184 503 -258 123 -53
340 -126 440 -150 37 -9 97 -23 134 -32 366 -87 846 -96 1256 -24 31 5 81 14
110 19 253 45 657 194 899 332 141 80 443 282 478 319 3 3 34 30 70 60 36 30
90 78 120 106 30 29 66 61 80 72 44 34 258 275 337 378 76 99 196 274 232 336
10 18 41 71 68 118 113 196 250 524 313 750 11 41 29 104 39 140 11 36 24 91
30 123 6 31 15 81 21 110 9 50 18 119 40 297 15 130 12 555 -5 685 -16 117
-28 193 -43 265 -6 25 -15 68 -21 95 -5 28 -20 82 -32 120 -15 49 -24 114 -29
215 -11 187 -27 304 -70 500 -11 52 -25 115 -30 140 -20 92 -56 222 -87 310
-70 202 -157 397 -203 455 -18 23 -51 88 -46 92 6 6 178 -167 236 -237 25 -30
47 -57 50 -60 3 -3 25 -32 49 -65 25 -33 56 -76 71 -95 108 -142 276 -429 337
-574 14 -34 34 -81 45 -105 96 -212 202 -575 249 -851 35 -206 51 -690 30
-876 -5 -43 -15 -131 -21 -194 -16 -157 -55 -379 -90 -514 -40 -157 -157 -505
-206 -613 -229 -512 -508 -919 -871 -1274 -314 -307 -528 -468 -893 -671 -109
-61 -150 -81 -230 -115 -19 -9 -48 -21 -65 -28 -91 -40 -272 -107 -355 -133
-138 -42 -231 -69 -265 -77 -16 -3 -48 -10 -70 -16 -383 -96 -1097 -107 -1545
-24 -74 14 -290 68 -385 97 -277 84 -575 217 -860 383 -100 58 -373 246 -480
332 -290 230 -687 697 -893 1048 -76 131 -92 160 -141 260 -97 199 -131 284
-211 527 -64 192 -87 281 -129 493 -58 287 -66 379 -66 755 0 340 4 398 36
625 9 63 47 253 70 348 23 95 28 116 42 167 47 169 176 493 272 685 269 538
710 1074 1192 1452 103 81 338 240 433 295 137 78 443 220 464 214 4 -1 18
-20 31 -41z m1510 -1755 c39 -5 108 -13 155 -19 47 -6 112 -18 144 -26 144
-38 413 -160 526 -239 372 -259 610 -545 753 -901 101 -253 146 -491 146 -780
1 -159 -3 -198 -34 -370 -67 -375 -268 -758 -536 -1022 -148 -146 -311 -259
-509 -355 -195 -94 -353 -140 -600 -174 -509 -69 -1105 117 -1488 463 -235
213 -424 505 -532 820 -45 133 -78 300 -96 491 -19 202 -9 373 37 577 46 211
98 350 197 530 185 335 427 581 772 783 19 11 78 39 130 62 52 22 102 45 110
49 8 4 61 22 118 40 204 63 520 95 707 71z"/>
</g>
</svg>
